<?xml version="1.0" standalone="no"?>
<!DOCTYPE svg PUBLIC "-//W3C//DTD SVG 20010904//EN"
 "http://www.w3.org/TR/2001/REC-SVG-20010904/DTD/svg10.dtd">
<svg version="1.0" xmlns="http://www.w3.org/2000/svg"
 width="512.000000pt" height="512.000000pt" viewBox="0 0 512.000000 512.000000"
 preserveAspectRatio="xMidYMid meet">

<g transform="translate(0.000000,512.000000) scale(0.100000,-0.100000)"
fill="#000000" stroke="none">
<path d="M2480 5114 c-65 -13 -155 -49 -203 -82 -28 -20 -172 -143 -319 -274
l-266 -237 -379 -3 -378 -3 -55 -26 c-99 -47 -169 -139 -190 -249 -5 -29 -10
-180 -10 -335 l0 -283 -288 -255 c-292 -260 -330 -301 -368 -402 -18 -48 -19
-96 -19 -1340 l0 -1290 23 -55 c46 -113 140 -207 249 -252 l58 -23 2225 0
2225 0 58 23 c109 44 205 140 249 250 l23 57 0 1285 c0 1224 -1 1288 -18 1340
-34 100 -72 142 -369 406 l-288 256 0 277 c0 152 -4 302 -10 334 -18 114 -88
208 -190 256 l-55 26 -378 3 -379 3 -266 237 c-297 265 -343 300 -434 331 -62
21 -197 35 -248 25z m202 -190 c56 -22 88 -47 303 -239 l179 -160 -302 -3
c-166 -1 -438 -1 -604 0 l-303 3 205 183 c113 100 221 190 240 199 94 45 193
51 282 17z m1481 -588 c42 -17 83 -66 97 -114 6 -24 10 -315 10 -827 l0 -791
-618 -391 c-340 -216 -623 -393 -629 -395 -6 -2 -71 45 -144 103 -173 136
-188 146 -251 168 -119 41 -224 35 -333 -19 -33 -16 -117 -78 -188 -140 -71
-60 -133 -110 -139 -110 -5 0 -259 169 -564 376 l-554 376 0 807 c0 523 4 819
10 843 13 47 55 97 95 114 45 20 3160 20 3208 0z m-3483 -1297 l0 -350 -220
148 c-120 81 -218 153 -216 158 2 8 426 394 434 395 1 0 2 -158 2 -351z m4007
133 c100 -89 184 -166 187 -171 5 -8 -412 -281 -428 -281 -4 0 -6 152 -6 337
l0 337 33 -30 c17 -17 114 -103 214 -192z m-3675 -921 l816 -554 -810 -694
c-445 -382 -811 -693 -812 -691 -31 48 -31 49 -34 1286 -2 1026 0 1222 11
1215 7 -4 381 -257 829 -562z m3766 -1268 l-3 -575 -803 642 c-521 417 -800
646 -793 653 5 5 366 235 803 512 l793 502 3 -579 c1 -319 1 -838 0 -1155z"/>
<path d="M1510 3824 c-184 -50 -311 -214 -311 -406 0 -197 118 -356 310 -414
38 -11 205 -14 961 -14 899 0 916 1 960 21 60 27 98 64 126 124 68 142 -13
316 -163 354 -28 7 -322 11 -877 11 l-835 0 -25 -22 c-15 -13 -29 -37 -32 -55
-5 -27 -1 -37 24 -63 l30 -30 832 0 c856 0 857 0 887 -39 21 -27 15 -79 -12
-106 l-24 -25 -898 0 c-882 0 -899 1 -943 21 -60 27 -98 64 -126 124 -65 137
4 302 145 350 64 22 1793 23 1886 1 153 -37 273 -153 315 -308 7 -29 11 -80 8
-131 -9 -172 -113 -311 -281 -376 -37 -14 -150 -17 -959 -21 l-916 -5 -26 -24
c-34 -32 -36 -88 -3 -119 l23 -22 915 0 c1006 0 969 -2 1097 62 35 17 93 59
129 92 131 120 194 263 194 436 0 172 -56 306 -175 425 -82 81 -163 127 -272
155 -74 19 -113 20 -993 19 -773 0 -925 -3 -971 -15z"/>
</g>
</svg>
